# xmcd
#
# Track frame offsets:
# 180
# 20400
# 40388
# 70107
# 84550
# 106036
# 117269
# 137416
# 154817
# 171483
#
# Disc length: 2479 seconds
#
#
# Revision: 0
# Processed by: cddbd v1.5PL3 Copyright (c) Steve Scherf et al.
# Submitted via: FreeRIP 2.70 
#
DISCID=7c09ad0a
DTITLE=James Germain - ASSOTO
DYEAR=1900
DGENRE=Ethnic
TTITLE0=Mamou Lèlè Yè
TTITLE1=Angelico
TTITLE2=Nam Batè
TTITLE3=Azaka
TTITLE4=Jou a Rivé
TTITLE5=Dambala
TTITLE6=En sel petit
TTITLE7=We shall overcome
TTITLE8=quand on n'a L'amour
TTITLE9=Assotò
EXTD=
EXTT0=
EXTT1=
EXTT2=
EXTT3=
EXTT4=
EXTT5=
EXTT6=
EXTT7=
EXTT8=
EXTT9=
PLAYORDER=
